<?xml version="1.0" standalone="no"?><!DOCTYPE svg PUBLIC "-//W3C//DTD SVG 1.1//EN" "http://www.w3.org/Graphics/SVG/1.1/DTD/svg11.dtd" [<!ENTITY nbsp " ">]><svg data-noselect="" 
  viewBox="140 117.83496201113002 522.2482147216799 391.68616104125994" 
  width="522.2482147216799" 
  height="391.68616104125994" 
  ref="svg_canvas" 
  preserveAspectRatio="none" 
  version="1.1" xmlns="http://www.w3.org/2000/svg" 
  style="background: rgba(0,0,0,0);">
    <defs></defs>
    <g id="shape_AjwXCJgVSQ" class=""  ref="shape_AjwXCJgVSQ" key="shape_AjwXCJgVSQ" transform="translate(220,248.0321714893) rotate(0,80,49.967828510696) scale(1,1)" style="cursor:move;display:inline;opacity:1;" filter="">
            <g style="display:inline"><rect fill="rgba(0,0,0,0)" width="180" height="119.935657021393" x="-10" y="-10"></rect><svg version="1.1" id="图层_1" xmlns="http://www.w3.org/2000/svg" xmlns:xlink="http://www.w3.org/1999/xlink" x="0px" y="0px" width="160" height="99.935657021393" viewBox="10.189589500427246 43.904483795166016 179.6204071044922 112.19052124023438" enable-background="new 0 0 200 200" xml:space="preserve" preserveAspectRatio="none" class="style-removed" data-parent="shape_AjwXCJgVSQ">
<g>
	<path fill="#246fdd" d="M106.321,89.494c0,0,21.712-23.689,49.111-19.623c20.564,3.052,29.926,14.137,34.378,20.14H176.37
		c0,0-9.943-9.084-23.78-10.899C140.013,77.462,129.843,78.121,106.321,89.494z" stroke-width="0"></path>
	<path fill="#246fdd" d="M147.161,71.716c0,0-5.801-22.574-33.028-27.054S61.92,55.92,43.31,82.687l22.517-4.021
		c0,0,19.354-29.195,47.101-24.24c16.083,2.872,24.699,10.109,27.916,18.496L147.161,71.716z" stroke-width="0"></path>
	<path fill="#24dd7f" d="M62.38,83.893c0,0-46.698,7.782-51.696,38.255c-4.136,25.216,18.611,33.947,33.43,33.947
		c18.036,0,112.698,0,112.698,0l1.206-5.687c0,0-71.397,0.324-101.38,0c-15.968-0.172-28.147-4.996-28.147-22.574
		c0-14.992,12.867-26.502,29.065-32.034L62.38,83.893z" stroke-width="0"></path>
</g>
</svg></g>
        </g><g id="shape_W7YDZ35Q8m" class="brand_name"  ref="shape_W7YDZ35Q8m" key="shape_W7YDZ35Q8m" transform="translate(202.52809143066003,111.2349152832) rotate(0,206.27399295228,203.822) scale(1,1)" style="cursor:move;display:inline;opacity:1;" filter="">
            <g style="display:inline"><svg xmlns="http://www.w3.org/2000/svg" version="1.1" xmlns:xlink="http://www.w3.org/1999/xlink" width="471" height="407.644" viewBox="0 0 471 407.644" preserveAspectRatio="none" data-parent="shape_W7YDZ35Q8m"><rect fill="rgba(0,0,0,0)" width="239" height="58" x="58" y="174.822"></rect><g data-width="238.49600000000004" transform="translate(58, 0)"><path d="M8.82-38.69L8.82-23.08L3.60-23.08L3.60-38.69L8.82-38.69Z" transform="translate(0 223.822) skewX(-14)" fill="#246fdd" stroke="#246fdd" stroke-width="0.097" data-glyph-w="12.528" data-glyph-h="58" data-glyph-ascender="49.822" data-glyph-descender="-8.178"></path><path d="M26.62-14.15L26.62-6.61Q26.62-5.28 26.13-4.15Q25.64-3.02 24.77-2.18Q23.90-1.33 22.74-0.84Q21.58-0.35 20.24-0.35L20.24-0.35L11.08-0.35L3.19-0.35L3.19-14.15L11.08-14.15L26.62-14.15ZM18.68-6.32L18.68-10.03L11.08-10.03L11.08-4.52L16.82-4.52Q17.63-4.52 18.15-5.05Q18.68-5.57 18.68-6.32L18.68-6.32ZM52.20-37.35L44.54-37.35L43.38-33.99L44.83-33.99Q46.34-33.99 47.68-33.41Q49.01-32.83 50.03-31.81Q51.04-30.80 51.62-29.46Q52.20-28.13 52.20-26.62L52.20-26.62L52.20-11.08L45.47-11.08L45.47-27.43Q45.47-28.30 44.86-28.91Q44.25-29.52 43.38-29.52L43.38-29.52L36.31-29.52L36.31-11.08L29.64-11.08L29.64-33.99L36.31-33.99L36.89-33.99L37.99-37.35L29.64-37.35L29.64-41.76L52.20-41.76L52.20-37.35ZM40.48-5.10L37.24 0L29.93 0L37.64-12.18L37.64-24.13L44.14-24.13L44.14-11.08L42.57-8.53L45.41-8.53L52.08 0L44.49 0L40.48-5.10ZM7.66-35.50L7.66-32.60L1.16-32.60L1.16-39.73L9.92-39.73L8.99-41.76L17.69-41.76L18.62-39.73L21.69-39.73Q22.97-39.73 24.13-39.24Q25.29-38.74 26.16-37.87Q27.03-37.00 27.52-35.84Q28.01-34.68 28.01-33.41L28.01-33.41L28.01-32.60L21.52-32.60L21.52-33.70Q21.52-34.45 21.00-34.97Q20.47-35.50 19.66-35.50L19.66-35.50L7.66-35.50ZM28.01-20.07L28.01-15.08Q24.24-15.20 20.91-15.63Q17.57-16.07 14.62-16.88L14.62-16.88Q11.66-16.07 8.32-15.63Q4.99-15.20 1.22-15.08L1.22-15.08L1.22-20.07Q4.23-20.24 6.96-20.59L6.96-20.59Q4.41-22.56 2.84-25.46L2.84-25.46L10.03-25.46Q11.02-24.42 12.18-23.66Q13.34-22.91 14.62-22.39L14.62-22.39Q16.24-23.03 17.63-24.04Q19.02-25.06 20.13-26.56L20.13-26.56L14.21-26.56L2.78-26.56L5.05-31.67L12.30-31.67L11.72-30.33L26.97-30.33L26.97-26.56Q26.16-24.71 25.00-23.23Q23.84-21.75 22.33-20.59L22.33-20.59Q25.11-20.24 28.01-20.07L28.01-20.07Z" transform="translate(12.528 223.822) skewX(-14)" fill="#246fdd" stroke="#246fdd" stroke-width="0.097" data-glyph-w="53.36" data-glyph-h="58" data-glyph-ascender="49.822" data-glyph-descender="-8.178"></path><path d="M44.49-19.26L52.14-12.06L43.79-12.06L43.79 0L35.79 0L35.79-14.91L39.27-14.91L35.09-19.26L15.60-19.26L12.64-14.91L16.70-14.91L14.15 0L6.15 0L8.24-12.06L1.39-12.06L6.38-19.26L1.22-19.26L1.22-24.36L9.92-24.36L11.19-26.22L2.67-26.22L2.67-31.32L14.73-31.32L16.01-33.18L1.22-33.18L1.22-38.34L7.13-38.34L5.80-41.82L14.09-41.82L15.37-38.34L37.64-38.34L38.98-41.82L47.21-41.82L45.88-38.34L51.68-38.34L51.68-33.18L25.23-33.18L23.95-31.32L50.52-31.32L50.52-26.22L20.42-26.22L19.14-24.36L51.68-24.36L51.68-19.26L44.49-19.26Z" transform="translate(65.888 223.822) skewX(-14)" fill="#246fdd" stroke="#246fdd" stroke-width="0.097" data-glyph-w="53.36" data-glyph-h="58" data-glyph-ascender="49.822" data-glyph-descender="-8.178"></path><path d="M8.82-38.69L8.82-23.08L3.60-23.08L3.60-38.69L8.82-38.69Z" transform="translate(119.248 223.822) skewX(-14)" fill="#246fdd" stroke="#246fdd" stroke-width="0.097" data-glyph-w="12.528" data-glyph-h="58" data-glyph-ascender="49.822" data-glyph-descender="-8.178"></path><path d="M12.99 0.06L1.10 0.06L21.11-15.14L1.10-15.14L1.10-20.88L22.56-20.88L22.56-29.23L3.02-29.23L3.02-34.97L11.95-34.97L8.87-41.88L17.28-41.88L20.36-34.97L32.83-34.97L35.90-41.88L44.31-41.88L41.24-34.97L50.17-34.97L50.17-29.23L31.84-29.23L31.84-20.88L52.08-20.88L52.08-15.14L31.84-15.14L31.84-14.09L29-12.01L34.39-12.01L52.26 0.06L39.32 0.06L25.75-9.57L12.99 0.06Z" transform="translate(131.776 223.822) skewX(-14)" fill="#246fdd" stroke="#246fdd" stroke-width="0.097" data-glyph-w="53.36" data-glyph-h="58" data-glyph-ascender="49.822" data-glyph-descender="-8.178"></path><path d="M22.33-26.68L22.33-20.76L19.02-21.29L19.02 0.17L11.02 0.17L11.02-22.56L8.12-23.03L8.12-2.38L1.22-2.38L1.22-39.38L8.12-39.38L8.12-28.94L11.02-28.48L11.02-41.93L19.02-41.93L19.02-27.20L22.33-26.68ZM52.14-35.55L35.38-35.55L33.99-29.35L40.02-29.35L40.02 0.17L31.96 0.17L31.96-20.18L28.77-5.57L21.00-5.57L27.61-35.55L21.75-35.55L21.75-41.18L52.14-41.18L52.14-35.55ZM52.14-4.81L44.37-4.81L40.02-29.35L47.79-29.35L52.14-4.81Z" transform="translate(185.13600000000002 223.822) skewX(-14)" fill="#246fdd" stroke="#246fdd" stroke-width="0.097" data-glyph-w="53.36" data-glyph-h="58" data-glyph-ascender="49.822" data-glyph-descender="-8.178"></path></g></svg></g>
        </g><g id="shape_KGTd7uuhMV" class="brand_slogan"  ref="shape_KGTd7uuhMV" key="shape_KGTd7uuhMV" transform="translate(247.24821472167997,278.37664794922) rotate(0,129.63989257812,92.274169921875) scale(1,1)" style="cursor:move;display:inline;opacity:1;" filter="">
            <g style="display:inline"><svg xmlns="http://www.w3.org/2000/svg" version="1.1" xmlns:xlink="http://www.w3.org/1999/xlink" width="410" height="176.89453125" viewBox="0 0 410 176.89453125" preserveAspectRatio="none" data-parent="shape_KGTd7uuhMV"><rect fill="rgba(0,0,0,0)" width="310" height="25" x="25" y="75.947265625"></rect><g data-width="309.7193359375" transform="translate(25, 0)"><path d="M1.22-15.01L1.22-20.31L3.09-20.31L3.09-15.01L1.22-15.01Z" transform="translate(0 95.947265625) skewX(0)" fill="rgb(36, 111, 221)" stroke="rgb(36, 111, 221)" stroke-width="0.042" data-glyph-w="4.30908203125" data-glyph-h="26.0498046875" data-glyph-ascender="20.947265625" data-glyph-descender="-5.1025390625"></path><path d="M13.42-7.86L4.50-7.86L2.29-2.88L0.24-2.88L8.00-20.31L9.92-20.31L17.68-2.88L15.64-2.88L13.42-7.86ZM8.96-17.88L5.33-9.73L12.59-9.73L8.96-17.88Z" transform="translate(4.30908203125 95.947265625) skewX(0)" fill="rgb(36, 111, 221)" stroke="rgb(36, 111, 221)" stroke-width="0.042" data-glyph-w="17.919921875" data-glyph-h="26.0498046875" data-glyph-ascender="20.947265625" data-glyph-descender="-5.1025390625"></path><path d="M9.45-8.17L3.09-17.09L3.09-2.88L1.22-2.88L1.22-20.31L3.09-20.31L10.24-10.28L17.41-20.31L19.27-20.31L19.27-2.88L17.41-2.88L17.41-17.09L11.04-8.17L9.45-8.17Z" transform="translate(22.22900390625 95.947265625) skewX(0)" fill="rgb(36, 111, 221)" stroke="rgb(36, 111, 221)" stroke-width="0.042" data-glyph-w="20.49560546875" data-glyph-h="26.0498046875" data-glyph-ascender="20.947265625" data-glyph-descender="-5.1025390625"></path><path d="M9.77-20.63Q13.50-20.63 16.15-17.98L16.15-17.98Q18.79-15.33 18.79-11.60L18.79-11.60Q18.79-7.85 16.15-5.21L16.15-5.21Q13.50-2.56 9.77-2.56L9.77-2.56Q6.02-2.56 3.38-5.21L3.38-5.21Q0.73-7.85 0.73-11.60L0.73-11.60Q0.73-15.33 3.38-17.98L3.38-17.98Q6.02-20.63 9.77-20.63L9.77-20.63ZM9.77-18.75L9.77-18.75Q6.80-18.75 4.70-16.66L4.70-16.66Q2.60-14.56 2.60-11.60L2.60-11.60Q2.60-8.63 4.70-6.53L4.70-6.53Q6.80-4.43 9.77-4.43L9.77-4.43Q12.73-4.43 14.83-6.53L14.83-6.53Q16.92-8.63 16.92-11.60L16.92-11.60Q16.92-14.56 14.83-16.66L14.83-16.66Q12.73-18.75 9.77-18.75Z" transform="translate(42.724609375 95.947265625) skewX(0)" fill="rgb(36, 111, 221)" stroke="rgb(36, 111, 221)" stroke-width="0.042" data-glyph-w="19.51904296875" data-glyph-h="26.0498046875" data-glyph-ascender="20.947265625" data-glyph-descender="-5.1025390625"></path><path d="M8.07-2.56Q10.91-2.56 12.92-4.21L12.92-4.21Q14.92-5.85 14.92-8.17L14.92-8.17L14.92-20.31L13.05-20.31L13.05-8.17Q13.05-6.62 11.60-5.53L11.60-5.53Q10.13-4.43 8.07-4.43L8.07-4.43Q6.01-4.43 4.55-5.53L4.55-5.53Q3.09-6.62 3.09-8.17L3.09-8.17L3.09-20.31L1.22-20.31L1.22-8.17Q1.22-5.85 3.22-4.21L3.22-4.21Q5.24-2.56 8.07-2.56L8.07-2.56Z" transform="translate(62.24365234375 95.947265625) skewX(0)" fill="rgb(36, 111, 221)" stroke="rgb(36, 111, 221)" stroke-width="0.042" data-glyph-w="16.1376953125" data-glyph-h="26.0498046875" data-glyph-ascender="20.947265625" data-glyph-descender="-5.1025390625"></path><path d="M13.05-6.21L13.05-20.31L14.92-20.31L14.92-2.88L13.13-2.88L3.09-16.98L3.09-2.88L1.22-2.88L1.22-20.31L3.00-20.31L13.05-6.21Z" transform="translate(78.38134765625 95.947265625) skewX(0)" fill="rgb(36, 111, 221)" stroke="rgb(36, 111, 221)" stroke-width="0.042" data-glyph-w="16.1376953125" data-glyph-h="26.0498046875" data-glyph-ascender="20.947265625" data-glyph-descender="-5.1025390625"></path><path d="M6.34-2.88L6.34-18.44L0.73-18.44L0.73-20.31L13.81-20.31L13.81-18.44L8.20-18.44L8.20-2.88L6.34-2.88Z" transform="translate(94.51904296875 95.947265625) skewX(0)" fill="rgb(36, 111, 221)" stroke="rgb(36, 111, 221)" stroke-width="0.042" data-glyph-w="14.53857421875" data-glyph-h="26.0498046875" data-glyph-ascender="20.947265625" data-glyph-descender="-5.1025390625"></path><path d="" transform="translate(109.0576171875 95.947265625) skewX(0)" fill="rgb(36, 111, 221)" stroke="rgb(36, 111, 221)" stroke-width="0.042" data-glyph-w="9.950000000000001" data-glyph-h="25" data-glyph-ascender="22" data-glyph-descender="-3"></path><path d="M7.90-18.75Q9.86-18.75 11.22-17.80L11.22-17.80Q12.56-16.85 12.56-15.49L12.56-15.49L14.43-15.49Q14.43-17.63 12.56-19.12L12.56-19.12Q10.67-20.63 7.90-20.63L7.90-20.63Q5.11-20.63 3.27-19.32L3.27-19.32Q1.35-17.97 1.35-15.80L1.35-15.80Q1.35-13.48 3.20-12.34L3.20-12.34Q4.44-11.58 7.28-11.10L7.28-11.10Q10.46-10.53 11.34-10.17L11.34-10.17Q13.18-9.41 13.18-7.70L13.18-7.70Q13.18-6.23 11.63-5.31L11.63-5.31Q10.16-4.43 7.90-4.43L7.90-4.43Q5.59-4.43 4.08-5.62L4.08-5.62Q2.60-6.77 2.60-8.48L2.60-8.48L0.73-8.48Q0.73-5.99 2.73-4.30L2.73-4.30Q4.79-2.56 7.90-2.56L7.90-2.56Q10.97-2.56 12.95-3.91L12.95-3.91Q15.05-5.32 15.05-7.70L15.05-7.70Q15.05-10.10 13.21-11.28L13.21-11.28Q11.94-12.10 9.14-12.60L9.14-12.60Q5.83-13.20 5.08-13.49L5.08-13.49Q3.22-14.21 3.22-15.80L3.22-15.80Q3.22-17.16 4.59-17.98L4.59-17.98Q5.90-18.75 7.90-18.75L7.90-18.75Z" transform="translate(119.0076171875 95.947265625) skewX(0)" fill="rgb(36, 111, 221)" stroke="rgb(36, 111, 221)" stroke-width="0.042" data-glyph-w="15.78369140625" data-glyph-h="26.0498046875" data-glyph-ascender="20.947265625" data-glyph-descender="-5.1025390625"></path><path d="M8.07-2.56Q10.91-2.56 12.92-4.21L12.92-4.21Q14.92-5.85 14.92-8.17L14.92-8.17L14.92-20.31L13.05-20.31L13.05-8.17Q13.05-6.62 11.60-5.53L11.60-5.53Q10.13-4.43 8.07-4.43L8.07-4.43Q6.01-4.43 4.55-5.53L4.55-5.53Q3.09-6.62 3.09-8.17L3.09-8.17L3.09-20.31L1.22-20.31L1.22-8.17Q1.22-5.85 3.22-4.21L3.22-4.21Q5.24-2.56 8.07-2.56L8.07-2.56Z" transform="translate(134.79130859375 95.947265625) skewX(0)" fill="rgb(36, 111, 221)" stroke="rgb(36, 111, 221)" stroke-width="0.042" data-glyph-w="16.1376953125" data-glyph-h="26.0498046875" data-glyph-ascender="20.947265625" data-glyph-descender="-5.1025390625"></path><path d="M8.39-20.31L1.22-20.31L1.22-2.88L3.09-2.88L3.09-9.11L8.39-9.11Q10.71-9.11 12.34-10.74L12.34-10.74Q13.99-12.39 13.99-14.71L13.99-14.71Q13.99-17.03 12.34-18.68L12.34-18.68Q10.71-20.31 8.39-20.31L8.39-20.31ZM3.09-18.44L8.39-18.44Q9.94-18.44 11.02-17.35L11.02-17.35Q12.12-16.26 12.12-14.71L12.12-14.71Q12.12-13.16 11.02-12.06L11.02-12.06Q9.94-10.97 8.39-10.97L8.39-10.97L3.09-10.97L3.09-18.44Z" transform="translate(150.92900390625 95.947265625) skewX(0)" fill="rgb(36, 111, 221)" stroke="rgb(36, 111, 221)" stroke-width="0.042" data-glyph-w="14.7216796875" data-glyph-h="26.0498046875" data-glyph-ascender="20.947265625" data-glyph-descender="-5.1025390625"></path><path d="M8.39-20.31L1.22-20.31L1.22-2.88L3.09-2.88L3.09-9.11L8.39-9.11Q10.71-9.11 12.34-10.74L12.34-10.74Q13.99-12.39 13.99-14.71L13.99-14.71Q13.99-17.03 12.34-18.68L12.34-18.68Q10.71-20.31 8.39-20.31L8.39-20.31ZM3.09-18.44L8.39-18.44Q9.94-18.44 11.02-17.35L11.02-17.35Q12.12-16.26 12.12-14.71L12.12-14.71Q12.12-13.16 11.02-12.06L11.02-12.06Q9.94-10.97 8.39-10.97L8.39-10.97L3.09-10.97L3.09-18.44Z" transform="translate(165.65068359375 95.947265625) skewX(0)" fill="rgb(36, 111, 221)" stroke="rgb(36, 111, 221)" stroke-width="0.042" data-glyph-w="14.7216796875" data-glyph-h="26.0498046875" data-glyph-ascender="20.947265625" data-glyph-descender="-5.1025390625"></path><path d="M9.77-20.63Q13.50-20.63 16.15-17.98L16.15-17.98Q18.79-15.33 18.79-11.60L18.79-11.60Q18.79-7.85 16.15-5.21L16.15-5.21Q13.50-2.56 9.77-2.56L9.77-2.56Q6.02-2.56 3.38-5.21L3.38-5.21Q0.73-7.85 0.73-11.60L0.73-11.60Q0.73-15.33 3.38-17.98L3.38-17.98Q6.02-20.63 9.77-20.63L9.77-20.63ZM9.77-18.75L9.77-18.75Q6.80-18.75 4.70-16.66L4.70-16.66Q2.60-14.56 2.60-11.60L2.60-11.60Q2.60-8.63 4.70-6.53L4.70-6.53Q6.80-4.43 9.77-4.43L9.77-4.43Q12.73-4.43 14.83-6.53L14.83-6.53Q16.92-8.63 16.92-11.60L16.92-11.60Q16.92-14.56 14.83-16.66L14.83-16.66Q12.73-18.75 9.77-18.75Z" transform="translate(180.37236328125 95.947265625) skewX(0)" fill="rgb(36, 111, 221)" stroke="rgb(36, 111, 221)" stroke-width="0.042" data-glyph-w="19.51904296875" data-glyph-h="26.0498046875" data-glyph-ascender="20.947265625" data-glyph-descender="-5.1025390625"></path><path d="M8.67-9.73L3.09-9.73L3.09-2.88L1.22-2.88L1.22-20.31L9.63-20.31Q11.82-20.31 13.37-18.76L13.37-18.76Q14.92-17.21 14.92-15.01L14.92-15.01Q14.92-12.83 13.37-11.28L13.37-11.28Q12.29-10.21 10.90-9.88L10.90-9.88L16.16-2.88L13.83-2.88L8.67-9.73ZM9.63-18.44L3.09-18.44L3.09-11.60L9.63-11.60Q11.05-11.60 12.05-12.60L12.05-12.60Q13.05-13.60 13.05-15.01L13.05-15.01Q13.05-16.44 12.05-17.44L12.05-17.44Q11.05-18.44 9.63-18.44L9.63-18.44Z" transform="translate(199.89140625 95.947265625) skewX(0)" fill="rgb(36, 111, 221)" stroke="rgb(36, 111, 221)" stroke-width="0.042" data-glyph-w="15.6494140625" data-glyph-h="26.0498046875" data-glyph-ascender="20.947265625" data-glyph-descender="-5.1025390625"></path><path d="M6.34-2.88L6.34-18.44L0.73-18.44L0.73-20.31L13.81-20.31L13.81-18.44L8.20-18.44L8.20-2.88L6.34-2.88Z" transform="translate(215.5408203125 95.947265625) skewX(0)" fill="rgb(36, 111, 221)" stroke="rgb(36, 111, 221)" stroke-width="0.042" data-glyph-w="14.53857421875" data-glyph-h="26.0498046875" data-glyph-ascender="20.947265625" data-glyph-descender="-5.1025390625"></path><path d="M1.22-15.01L1.22-20.31L3.09-20.31L3.09-15.01L1.22-15.01Z" transform="translate(230.07939453125 95.947265625) skewX(0)" fill="rgb(36, 111, 221)" stroke="rgb(36, 111, 221)" stroke-width="0.042" data-glyph-w="4.30908203125" data-glyph-h="26.0498046875" data-glyph-ascender="20.947265625" data-glyph-descender="-5.1025390625"></path><path d="" transform="translate(234.3884765625 95.947265625) skewX(0)" fill="rgb(36, 111, 221)" stroke="rgb(36, 111, 221)" stroke-width="0.042" data-glyph-w="9.950000000000001" data-glyph-h="25" data-glyph-ascender="22" data-glyph-descender="-3"></path><path d="M9.77-2.56Q13.96-2.56 16.67-5.79L16.67-5.79L15.25-6.99Q13.10-4.43 9.77-4.43L9.77-4.43Q6.80-4.43 4.70-6.53L4.70-6.53Q2.60-8.63 2.60-11.60L2.60-11.60Q2.60-14.56 4.70-16.66L4.70-16.66Q6.80-18.75 9.77-18.75L9.77-18.75Q13.10-18.75 15.25-16.20L15.25-16.20L16.67-17.40Q13.96-20.63 9.77-20.63L9.77-20.63Q6.02-20.63 3.38-17.98L3.38-17.98Q0.73-15.33 0.73-11.60L0.73-11.60Q0.73-7.85 3.38-5.21L3.38-5.21Q6.02-2.56 9.77-2.56L9.77-2.56Z" transform="translate(244.33847656249998 95.947265625) skewX(0)" fill="rgb(36, 111, 221)" stroke="rgb(36, 111, 221)" stroke-width="0.042" data-glyph-w="17.4072265625" data-glyph-h="26.0498046875" data-glyph-ascender="20.947265625" data-glyph-descender="-5.1025390625"></path><path d="M13.42-7.86L4.50-7.86L2.29-2.88L0.24-2.88L8.00-20.31L9.92-20.31L17.68-2.88L15.64-2.88L13.42-7.86ZM8.96-17.88L5.33-9.73L12.59-9.73L8.96-17.88Z" transform="translate(261.745703125 95.947265625) skewX(0)" fill="rgb(36, 111, 221)" stroke="rgb(36, 111, 221)" stroke-width="0.042" data-glyph-w="17.919921875" data-glyph-h="26.0498046875" data-glyph-ascender="20.947265625" data-glyph-descender="-5.1025390625"></path><path d="M8.67-9.73L3.09-9.73L3.09-2.88L1.22-2.88L1.22-20.31L9.63-20.31Q11.82-20.31 13.37-18.76L13.37-18.76Q14.92-17.21 14.92-15.01L14.92-15.01Q14.92-12.83 13.37-11.28L13.37-11.28Q12.29-10.21 10.90-9.88L10.90-9.88L16.16-2.88L13.83-2.88L8.67-9.73ZM9.63-18.44L3.09-18.44L3.09-11.60L9.63-11.60Q11.05-11.60 12.05-12.60L12.05-12.60Q13.05-13.60 13.05-15.01L13.05-15.01Q13.05-16.44 12.05-17.44L12.05-17.44Q11.05-18.44 9.63-18.44L9.63-18.44Z" transform="translate(279.665625 95.947265625) skewX(0)" fill="rgb(36, 111, 221)" stroke="rgb(36, 111, 221)" stroke-width="0.042" data-glyph-w="15.6494140625" data-glyph-h="26.0498046875" data-glyph-ascender="20.947265625" data-glyph-descender="-5.1025390625"></path><path d="M3.09-18.44L3.09-12.52L13.67-12.52L13.67-10.66L3.09-10.66L3.09-4.75L13.67-4.75L13.67-2.88L1.22-2.88L1.22-20.31L13.67-20.31L13.67-18.44L3.09-18.44Z" transform="translate(295.3150390625 95.947265625) skewX(0)" fill="rgb(36, 111, 221)" stroke="rgb(36, 111, 221)" stroke-width="0.042" data-glyph-w="14.404296875" data-glyph-h="26.0498046875" data-glyph-ascender="20.947265625" data-glyph-descender="-5.1025390625"></path></g></svg></g>
        </g>
  </svg>